{"glyphs":{"0":{"ha":608,"x_min":0,"x_max":521,"o":"m 347 87 l 347 521 l 174 521 l 174 87 l 347 87 m 87 0 l 87 87 l 0 87 l 0 521 l 87 521 l 87 608 l 434 608 l 434 521 l 521 521 l 521 87 l 434 87 l 434 0 l 87 0 z "},"1":{"ha":434,"x_min":0,"x_max":347,"o":"m 0 0 l 0 87 l 87 87 l 87 434 l 0 434 l 0 521 l 87 521 l 87 608 l 260 608 l 260 87 l 347 87 l 347 0 l 0 0 z "},"2":{"ha":608,"x_min":0,"x_max":521,"o":"m 0 0 l 0 87 l 87 87 l 87 260 l 174 260 l 174 347 l 347 347 l 347 521 l 174 521 l 174 434 l 0 434 l 0 521 l 87 521 l 87 608 l 434 608 l 434 521 l 521 521 l 521 347 l 434 347 l 434 260 l 260 260 l 260 87 l 434 87 l 434 174 l 521 174 l 521 0 l 0 0 z "},"3":{"ha":608,"x_min":0,"x_max":521,"o":"m 87 0 l 87 87 l 0 87 l 0 174 l 174 174 l 174 87 l 347 87 l 347 174 l 260 174 l 260 260 l 174 260 l 174 347 l 260 347 l 260 434 l 347 434 l 347 521 l 174 521 l 174 434 l 0 434 l 0 521 l 87 521 l 87 608 l 434 608 l 434 521 l 521 521 l 521 434 l 434 434 l 434 260 l 521 260 l 521 87 l 434 87 l 434 0 l 87 0 z "},"4":{"ha":608,"x_min":0,"x_max":521,"o":"m 174 0 l 174 87 l 260 87 l 260 260 l 0 260 l 0 347 l 87 347 l 87 434 l 174 434 l 174 347 l 260 347 l 260 434 l 174 434 l 174 521 l 260 521 l 260 608 l 434 608 l 434 347 l 521 347 l 521 260 l 434 260 l 434 87 l 521 87 l 521 0 l 174 0 z "},"5":{"ha":608,"x_min":0,"x_max":521,"o":"m 87 0 l 87 87 l 0 87 l 0 174 l 174 174 l 174 87 l 347 87 l 347 260 l 87 260 l 87 347 l 0 347 l 0 608 l 521 608 l 521 521 l 174 521 l 174 347 l 434 347 l 434 260 l 521 260 l 521 87 l 434 87 l 434 0 l 87 0 z "},"6":{"ha":608,"x_min":0,"x_max":521,"o":"m 347 87 l 347 260 l 174 260 l 174 87 l 347 87 m 434 434 l 434 521 l 521 521 l 521 434 l 434 434 m 87 0 l 87 87 l 0 87 l 0 521 l 87 521 l 87 608 l 434 608 l 434 521 l 174 521 l 174 347 l 434 347 l 434 260 l 521 260 l 521 87 l 434 87 l 434 0 l 87 0 z "},"7":{"ha":608,"x_min":0,"x_max":521,"o":"m 174 0 l 174 347 l 260 347 l 260 434 l 347 434 l 347 521 l 174 521 l 174 434 l 0 434 l 0 608 l 521 608 l 521 434 l 434 434 l 434 260 l 347 260 l 347 0 l 174 0 z "},"8":{"ha":608,"x_min":0,"x_max":521,"o":"m 347 87 l 347 260 l 174 260 l 174 87 l 347 87 m 347 347 l 347 521 l 174 521 l 174 347 l 347 347 m 87 0 l 87 87 l 0 87 l 0 260 l 87 260 l 87 347 l 0 347 l 0 521 l 87 521 l 87 608 l 434 608 l 434 521 l 521 521 l 521 347 l 434 347 l 434 260 l 521 260 l 521 87 l 434 87 l 434 0 l 87 0 z "},"9":{"ha":608,"x_min":0,"x_max":521,"o":"m 347 260 l 347 521 l 174 521 l 174 260 l 347 260 m 87 0 l 87 87 l 347 87 l 347 174 l 87 174 l 87 260 l 0 260 l 0 521 l 87 521 l 87 608 l 434 608 l 434 521 l 521 521 l 521 87 l 434 87 l 434 0 l 87 0 z "}," ":{"ha":260,"x_min":0,"x_max":0,"o":""},"!":{"ha":260,"x_min":87,"x_max":174,"o":"m 87 87 l 87 174 l 174 174 l 174 87 l 87 87 m 87 260 l 87 608 l 174 608 l 174 260 l 87 260 z "},"\"":{"ha":347,"x_min":0,"x_max":260,"o":"m 0 434 l 0 608 l 87 608 l 87 434 l 0 434 m 174 434 l 174 608 l 260 608 l 260 434 l 174 434 z "},"#":{"ha":521,"x_min":0,"x_max":434,"o":"m 260 260 l 260 347 l 174 347 l 174 260 l 260 260 m 87 87 l 87 174 l 0 174 l 0 260 l 87 260 l 87 347 l 0 347 l 0 434 l 87 434 l 87 521 l 174 521 l 174 434 l 260 434 l 260 521 l 347 521 l 347 434 l 434 434 l 434 347 l 347 347 l 347 260 l 434 260 l 434 174 l 347 174 l 347 87 l 260 87 l 260 174 l 174 174 l 174 87 l 87 87 z "},"$":{"ha":521,"x_min":0,"x_max":434,"o":"m 260 174 l 260 260 l 347 260 l 347 347 l 260 347 l 260 434 l 174 434 l 174 347 l 87 347 l 87 260 l 174 260 l 174 174 l 260 174 m 87 87 l 87 174 l 0 174 l 0 434 l 87 434 l 87 521 l 347 521 l 347 434 l 434 434 l 434 174 l 347 174 l 347 87 l 87 87 z "},"%":{"ha":521,"x_min":0,"x_max":434,"o":"m 0 87 l 0 174 l 87 174 l 87 87 l 0 87 m 260 87 l 260 174 l 347 174 l 347 87 l 260 87 m 347 174 l 347 260 l 434 260 l 434 174 l 347 174 m 87 347 l 87 434 l 174 434 l 174 347 l 87 347 m 87 174 l 87 260 l 174 260 l 174 347 l 260 347 l 260 434 l 347 434 l 347 260 l 260 260 l 260 174 l 87 174 m 0 434 l 0 521 l 87 521 l 87 434 l 0 434 m 174 434 l 174 521 l 260 521 l 260 434 l 174 434 m 347 434 l 347 521 l 434 521 l 434 434 l 347 434 m 87 521 l 87 608 l 174 608 l 174 521 l 87 521 z "},"&":{"ha":521,"x_min":0,"x_max":434,"o":"m 87 87 l 87 174 l 260 174 l 260 87 l 87 87 m 0 174 l 0 260 l 87 260 l 87 174 l 0 174 m 87 260 l 87 347 l 174 347 l 174 260 l 87 260 m 347 87 l 347 174 l 260 174 l 260 347 l 347 347 l 347 260 l 434 260 l 434 87 l 347 87 m 174 347 l 174 434 l 260 434 l 260 347 l 174 347 m 87 434 l 87 521 l 174 521 l 174 434 l 87 434 m 260 434 l 260 521 l 347 521 l 347 434 l 260 434 m 174 521 l 174 608 l 260 608 l 260 521 l 174 521 z "},"'":{"ha":174,"x_min":0,"x_max":87,"o":"m 0 347 l 0 608 l 87 608 l 87 347 l 0 347 z "},"(":{"ha":347,"x_min":0,"x_max":260,"o":"m 174 87 l 174 174 l 260 174 l 260 87 l 174 87 m 87 174 l 87 260 l 174 260 l 174 174 l 87 174 m 0 260 l 0 434 l 87 434 l 87 260 l 0 260 m 87 434 l 87 521 l 174 521 l 174 434 l 87 434 m 174 521 l 174 608 l 260 608 l 260 521 l 174 521 z "},")":{"ha":434,"x_min":87,"x_max":347,"o":"m 87 87 l 87 174 l 174 174 l 174 87 l 87 87 m 174 174 l 174 260 l 260 260 l 260 174 l 174 174 m 260 260 l 260 434 l 347 434 l 347 260 l 260 260 m 174 434 l 174 521 l 260 521 l 260 434 l 174 434 m 87 521 l 87 608 l 174 608 l 174 521 l 87 521 z "},"*":{"ha":521,"x_min":0,"x_max":434,"o":"m 0 260 l 0 347 l 87 347 l 87 260 l 0 260 m 347 260 l 347 347 l 434 347 l 434 260 l 347 260 m 0 434 l 0 521 l 87 521 l 87 434 l 0 434 m 347 434 l 347 521 l 434 521 l 434 434 l 347 434 m 174 174 l 174 347 l 87 347 l 87 434 l 174 434 l 174 608 l 260 608 l 260 434 l 347 434 l 347 347 l 260 347 l 260 174 l 174 174 z "},"+":{"ha":521,"x_min":0,"x_max":434,"o":"m 174 87 l 174 260 l 0 260 l 0 347 l 174 347 l 174 521 l 260 521 l 260 347 l 434 347 l 434 260 l 260 260 l 260 87 l 174 87 z "},",":{"ha":260,"x_min":0,"x_max":174,"o":"m 0 -87 l 0 0 l 87 0 l 87 -87 l 0 -87 m 87 0 l 87 174 l 174 174 l 174 0 l 87 0 z "},"-":{"ha":521,"x_min":0,"x_max":434,"o":"m 0 260 l 0 347 l 434 347 l 434 260 l 0 260 z "},".":{"ha":174,"x_min":0,"x_max":87,"o":"m 0 0 l 0 87 l 87 87 l 87 0 l 0 0 z "},"/":{"ha":434,"x_min":87,"x_max":347,"o":"m 87 87 l 87 260 l 174 260 l 174 87 l 87 87 m 174 260 l 174 434 l 260 434 l 260 260 l 174 260 m 260 434 l 260 608 l 347 608 l 347 434 l 260 434 z "},":":{"ha":260,"x_min":0,"x_max":174,"o":"m 0 174 l 0 260 l 174 260 l 174 174 l 0 174 m 0 347 l 0 434 l 174 434 l 174 347 l 0 347 z "},";":{"ha":260,"x_min":0,"x_max":174,"o":"m 0 0 l 0 87 l 87 87 l 87 0 l 0 0 m 87 87 l 87 260 l 174 260 l 174 87 l 87 87 m 87 347 l 87 434 l 174 434 l 174 347 l 87 347 z "},"<":{"ha":521,"x_min":0,"x_max":434,"o":"m 260 87 l 260 174 l 434 174 l 434 87 l 260 87 m 87 174 l 87 260 l 260 260 l 260 174 l 87 174 m 0 260 l 0 347 l 87 347 l 87 260 l 0 260 m 87 347 l 87 434 l 260 434 l 260 347 l 87 347 m 260 434 l 260 521 l 434 521 l 434 434 l 260 434 z "},"=":{"ha":521,"x_min":0,"x_max":434,"o":"m 0 174 l 0 260 l 434 260 l 434 174 l 0 174 m 0 347 l 0 434 l 434 434 l 434 347 l 0 347 z "},">":{"ha":521,"x_min":0,"x_max":434,"o":"m 0 87 l 0 174 l 174 174 l 174 87 l 0 87 m 174 174 l 174 260 l 347 260 l 347 174 l 174 174 m 347 260 l 347 347 l 434 347 l 434 260 l 347 260 m 174 347 l 174 434 l 347 434 l 347 347 l 174 347 m 0 434 l 0 521 l 174 521 l 174 434 l 0 434 z "},"?":{"ha":521,"x_min":0,"x_max":434,"o":"m 174 87 l 174 174 l 260 174 l 260 87 l 174 87 m 174 260 l 174 347 l 260 347 l 260 260 l 174 260 m 260 347 l 260 434 l 347 434 l 347 347 l 260 347 m 0 434 l 0 521 l 87 521 l 87 434 l 0 434 m 347 434 l 347 521 l 434 521 l 434 434 l 347 434 m 87 521 l 87 608 l 347 608 l 347 521 l 87 521 z "},"A":{"ha":781,"x_min":0,"x_max":694,"o":"m 434 260 l 434 347 l 347 347 l 347 260 l 434 260 m 0 0 l 0 87 l 87 87 l 87 260 l 174 260 l 174 434 l 260 434 l 260 608 l 434 608 l 434 434 l 521 434 l 521 260 l 608 260 l 608 87 l 694 87 l 694 0 l 434 0 l 434 87 l 521 87 l 521 174 l 260 174 l 260 87 l 347 87 l 347 0 l 0 0 z "},"B":{"ha":608,"x_min":0,"x_max":521,"o":"m 434 87 l 434 260 l 521 260 l 521 87 l 434 87 m 434 347 l 434 521 l 521 521 l 521 347 l 434 347 m 0 0 l 0 87 l 87 87 l 87 521 l 0 521 l 0 608 l 434 608 l 434 521 l 260 521 l 260 347 l 434 347 l 434 260 l 260 260 l 260 87 l 434 87 l 434 0 l 0 0 z "},"C":{"ha":694,"x_min":0,"x_max":608,"o":"m 521 87 l 521 174 l 608 174 l 608 87 l 521 87 m 521 434 l 521 521 l 608 521 l 608 434 l 521 434 m 174 0 l 174 87 l 87 87 l 87 174 l 0 174 l 0 434 l 87 434 l 87 521 l 174 521 l 174 608 l 521 608 l 521 521 l 347 521 l 347 434 l 260 434 l 260 174 l 347 174 l 347 87 l 521 87 l 521 0 l 174 0 z "},"D":{"ha":694,"x_min":0,"x_max":608,"o":"m 434 87 l 434 174 l 521 174 l 521 87 l 434 87 m 521 174 l 521 434 l 608 434 l 608 174 l 521 174 m 434 434 l 434 521 l 521 521 l 521 434 l 434 434 m 0 0 l 0 87 l 87 87 l 87 521 l 0 521 l 0 608 l 434 608 l 434 521 l 260 521 l 260 87 l 434 87 l 434 0 l 0 0 z "},"E":{"ha":608,"x_min":0,"x_max":521,"o":"m 0 0 l 0 87 l 87 87 l 87 521 l 0 521 l 0 608 l 521 608 l 521 434 l 434 434 l 434 521 l 260 521 l 260 347 l 434 347 l 434 260 l 260 260 l 260 87 l 434 87 l 434 174 l 521 174 l 521 0 l 0 0 z "},"F":{"ha":608,"x_min":0,"x_max":521,"o":"m 0 0 l 0 87 l 87 87 l 87 521 l 0 521 l 0 608 l 521 608 l 521 434 l 434 434 l 434 521 l 260 521 l 260 347 l 434 347 l 434 260 l 260 260 l 260 87 l 347 87 l 347 0 l 0 0 z "},"G":{"ha":781,"x_min":0,"x_max":694,"o":"m 521 87 l 521 174 l 434 174 l 434 260 l 694 260 l 694 174 l 608 174 l 608 87 l 521 87 m 521 434 l 521 521 l 608 521 l 608 434 l 521 434 m 174 0 l 174 87 l 87 87 l 87 174 l 0 174 l 0 434 l 87 434 l 87 521 l 174 521 l 174 608 l 521 608 l 521 521 l 347 521 l 347 434 l 260 434 l 260 174 l 347 174 l 347 87 l 521 87 l 521 0 l 174 0 z "},"H":{"ha":781,"x_min":0,"x_max":694,"o":"m 0 0 l 0 87 l 87 87 l 87 521 l 0 521 l 0 608 l 347 608 l 347 521 l 260 521 l 260 347 l 521 347 l 521 521 l 434 521 l 434 608 l 694 608 l 694 521 l 608 521 l 608 87 l 694 87 l 694 0 l 434 0 l 434 87 l 521 87 l 521 260 l 260 260 l 260 87 l 347 87 l 347 0 l 0 0 z "},"I":{"ha":434,"x_min":0,"x_max":347,"o":"m 0 0 l 0 87 l 87 87 l 87 521 l 0 521 l 0 608 l 347 608 l 347 521 l 260 521 l 260 87 l 347 87 l 347 0 l 0 0 z "},"J":{"ha":694,"x_min":0,"x_max":608,"o":"m 87 0 l 87 87 l 0 87 l 0 260 l 174 260 l 174 87 l 347 87 l 347 521 l 260 521 l 260 608 l 608 608 l 608 521 l 521 521 l 521 87 l 434 87 l 434 0 l 87 0 z "},"K":{"ha":868,"x_min":0,"x_max":781,"o":"m 521 0 l 521 87 l 608 87 l 608 174 l 694 174 l 694 87 l 781 87 l 781 0 l 521 0 m 521 174 l 521 260 l 608 260 l 608 174 l 521 174 m 347 260 l 347 347 l 434 347 l 434 434 l 521 434 l 521 260 l 347 260 m 0 0 l 0 87 l 87 87 l 87 521 l 0 521 l 0 608 l 347 608 l 347 521 l 260 521 l 260 260 l 347 260 l 347 174 l 260 174 l 260 87 l 347 87 l 347 0 l 0 0 m 521 434 l 521 521 l 434 521 l 434 608 l 694 608 l 694 521 l 608 521 l 608 434 l 521 434 z "},"L":{"ha":694,"x_min":0,"x_max":608,"o":"m 0 0 l 0 87 l 87 87 l 87 521 l 0 521 l 0 608 l 347 608 l 347 521 l 260 521 l 260 87 l 521 87 l 521 174 l 608 174 l 608 0 l 0 0 z "},"M":{"ha":955,"x_min":0,"x_max":868,"o":"m 0 0 l 0 87 l 87 87 l 87 521 l 0 521 l 0 608 l 260 608 l 260 521 l 347 521 l 347 434 l 434 434 l 434 260 l 521 260 l 521 434 l 608 434 l 608 608 l 868 608 l 868 521 l 781 521 l 781 87 l 868 87 l 868 0 l 608 0 l 608 87 l 694 87 l 694 347 l 608 347 l 608 174 l 521 174 l 521 0 l 347 0 l 347 174 l 260 174 l 260 347 l 174 347 l 174 87 l 260 87 l 260 0 l 0 0 z "},"N":{"ha":781,"x_min":0,"x_max":694,"o":"m 0 0 l 0 87 l 87 87 l 87 521 l 0 521 l 0 608 l 260 608 l 260 521 l 347 521 l 347 434 l 434 434 l 434 347 l 521 347 l 521 521 l 434 521 l 434 608 l 694 608 l 694 521 l 608 521 l 608 87 l 694 87 l 694 0 l 521 0 l 521 87 l 434 87 l 434 174 l 347 174 l 347 260 l 260 260 l 260 347 l 174 347 l 174 87 l 260 87 l 260 0 l 0 0 z "},"O":{"ha":781,"x_min":0,"x_max":694,"o":"m 521 87 l 521 174 l 608 174 l 608 87 l 521 87 m 608 174 l 608 434 l 694 434 l 694 174 l 608 174 m 521 434 l 521 521 l 608 521 l 608 434 l 521 434 m 174 0 l 174 87 l 87 87 l 87 174 l 0 174 l 0 434 l 87 434 l 87 521 l 174 521 l 174 608 l 521 608 l 521 521 l 347 521 l 347 434 l 260 434 l 260 174 l 347 174 l 347 87 l 521 87 l 521 0 l 174 0 z "},"P":{"ha":608,"x_min":0,"x_max":521,"o":"m 347 347 l 347 521 l 260 521 l 260 347 l 347 347 m 0 0 l 0 87 l 87 87 l 87 521 l 0 521 l 0 608 l 434 608 l 434 521 l 521 521 l 521 347 l 434 347 l 434 260 l 260 260 l 260 87 l 347 87 l 347 0 l 0 0 z "},"Q":{"ha":868,"x_min":0,"x_max":781,"o":"m 608 0 l 608 87 l 781 87 l 781 0 l 608 0 m 521 87 l 521 174 l 608 174 l 608 87 l 521 87 m 347 174 l 347 260 l 521 260 l 521 174 l 347 174 m 608 174 l 608 434 l 694 434 l 694 174 l 608 174 m 521 434 l 521 521 l 608 521 l 608 434 l 521 434 m 174 0 l 174 87 l 87 87 l 87 174 l 0 174 l 0 434 l 87 434 l 87 521 l 174 521 l 174 608 l 521 608 l 521 521 l 347 521 l 347 434 l 260 434 l 260 174 l 347 174 l 347 87 l 521 87 l 521 0 l 174 0 z "},"R":{"ha":694,"x_min":0,"x_max":608,"o":"m 434 347 l 434 521 l 521 521 l 521 347 l 434 347 m 0 0 l 0 87 l 87 87 l 87 521 l 0 521 l 0 608 l 434 608 l 434 521 l 260 521 l 260 347 l 434 347 l 434 260 l 521 260 l 521 87 l 608 87 l 608 0 l 434 0 l 434 87 l 347 87 l 347 260 l 260 260 l 260 87 l 347 87 l 347 0 l 0 0 z "},"S":{"ha":521,"x_min":0,"x_max":434,"o":"m 0 87 l 0 174 l 87 174 l 87 87 l 0 87 m 347 434 l 347 521 l 434 521 l 434 434 l 347 434 m 87 0 l 87 87 l 260 87 l 260 174 l 174 174 l 174 260 l 87 260 l 87 347 l 0 347 l 0 521 l 87 521 l 87 608 l 347 608 l 347 521 l 174 521 l 174 434 l 260 434 l 260 347 l 347 347 l 347 260 l 434 260 l 434 87 l 347 87 l 347 0 l 87 0 z "},"T":{"ha":608,"x_min":0,"x_max":521,"o":"m 87 0 l 87 87 l 174 87 l 174 521 l 87 521 l 87 434 l 0 434 l 0 608 l 521 608 l 521 434 l 434 434 l 434 521 l 347 521 l 347 87 l 434 87 l 434 0 l 87 0 z "},"U":{"ha":781,"x_min":0,"x_max":694,"o":"m 174 0 l 174 87 l 87 87 l 87 521 l 0 521 l 0 608 l 347 608 l 347 521 l 260 521 l 260 87 l 521 87 l 521 0 l 174 0 m 521 87 l 521 521 l 434 521 l 434 608 l 694 608 l 694 521 l 608 521 l 608 87 l 521 87 z "},"V":{"ha":781,"x_min":0,"x_max":694,"o":"m 260 0 l 260 174 l 174 174 l 174 347 l 87 347 l 87 521 l 0 521 l 0 608 l 347 608 l 347 521 l 260 521 l 260 434 l 347 434 l 347 260 l 434 260 l 434 434 l 521 434 l 521 521 l 434 521 l 434 608 l 694 608 l 694 521 l 608 521 l 608 347 l 521 347 l 521 174 l 434 174 l 434 0 l 260 0 z "},"W":{"ha":1128,"x_min":0,"x_max":1042,"o":"m 347 0 l 347 87 l 260 87 l 260 174 l 174 174 l 174 347 l 87 347 l 87 521 l 0 521 l 0 608 l 260 608 l 260 434 l 347 434 l 347 260 l 434 260 l 434 174 l 521 174 l 521 87 l 434 87 l 434 0 l 347 0 m 694 0 l 694 87 l 608 87 l 608 174 l 521 174 l 521 347 l 434 347 l 434 521 l 347 521 l 347 608 l 694 608 l 694 521 l 608 521 l 608 434 l 694 434 l 694 260 l 781 260 l 781 434 l 868 434 l 868 521 l 781 521 l 781 608 l 1042 608 l 1042 521 l 955 521 l 955 347 l 868 347 l 868 174 l 781 174 l 781 0 l 694 0 z "},"X":{"ha":781,"x_min":0,"x_max":694,"o":"m 434 0 l 434 87 l 521 87 l 521 174 l 608 174 l 608 87 l 694 87 l 694 0 l 434 0 m 434 174 l 434 260 l 521 260 l 521 174 l 434 174 m 434 347 l 434 434 l 521 434 l 521 347 l 434 347 m 0 0 l 0 87 l 87 87 l 87 174 l 174 174 l 174 260 l 260 260 l 260 347 l 174 347 l 174 434 l 87 434 l 87 521 l 0 521 l 0 608 l 347 608 l 347 521 l 260 521 l 260 434 l 347 434 l 347 347 l 434 347 l 434 260 l 347 260 l 347 174 l 260 174 l 260 87 l 347 87 l 347 0 l 0 0 m 521 434 l 521 521 l 434 521 l 434 608 l 694 608 l 694 521 l 608 521 l 608 434 l 521 434 z "},"Y":{"ha":781,"x_min":0,"x_max":694,"o":"m 434 347 l 434 434 l 521 434 l 521 347 l 434 347 m 174 0 l 174 87 l 260 87 l 260 347 l 174 347 l 174 434 l 87 434 l 87 521 l 0 521 l 0 608 l 347 608 l 347 521 l 260 521 l 260 434 l 347 434 l 347 347 l 434 347 l 434 87 l 521 87 l 521 0 l 174 0 m 521 434 l 521 521 l 434 521 l 434 608 l 694 608 l 694 521 l 608 521 l 608 434 l 521 434 z "},"Z":{"ha":608,"x_min":0,"x_max":521,"o":"m 0 0 l 0 174 l 87 174 l 87 260 l 174 260 l 174 347 l 260 347 l 260 434 l 347 434 l 347 521 l 87 521 l 87 434 l 0 434 l 0 608 l 521 608 l 521 434 l 434 434 l 434 347 l 347 347 l 347 260 l 260 260 l 260 174 l 174 174 l 174 87 l 434 87 l 434 174 l 521 174 l 521 0 l 0 0 z "},"[":{"ha":347,"x_min":0,"x_max":260,"o":"m 0 87 l 0 608 l 260 608 l 260 521 l 87 521 l 87 174 l 260 174 l 260 87 l 0 87 z "},"\\":{"ha":694,"x_min":0,"x_max":608,"o":"m 0 260 l 0 347 l 87 347 l 87 260 l 0 260 m 87 347 l 87 434 l 174 434 l 174 347 l 87 347 m 174 434 l 174 521 l 260 521 l 260 434 l 174 434 m 260 0 l 260 87 l 174 87 l 174 174 l 87 174 l 87 260 l 260 260 l 260 347 l 347 347 l 347 521 l 434 521 l 434 434 l 521 434 l 521 347 l 608 347 l 608 260 l 521 260 l 521 174 l 434 174 l 434 87 l 347 87 l 347 0 l 260 0 m 260 521 l 260 608 l 347 608 l 347 521 l 260 521 z "},"]":{"ha":347,"x_min":0,"x_max":260,"o":"m 0 87 l 0 174 l 174 174 l 174 521 l 0 521 l 0 608 l 260 608 l 260 87 l 0 87 z "},"^":{"ha":608,"x_min":0,"x_max":521,"o":"m 87 87 l 87 174 l 0 174 l 0 347 l 174 347 l 174 260 l 260 260 l 260 347 l 347 347 l 347 434 l 434 434 l 434 521 l 521 521 l 521 347 l 434 347 l 434 260 l 347 260 l 347 174 l 260 174 l 260 87 l 87 87 z "},"_":{"ha":608,"x_min":87,"x_max":521,"o":"m 174 174 l 174 260 l 87 260 l 87 434 l 174 434 l 174 521 l 434 521 l 434 434 l 521 434 l 521 260 l 434 260 l 434 174 l 174 174 z "},"`":{"ha":174,"x_min":0,"x_max":87,"o":"m 0 347 l 0 608 l 87 608 l 87 347 l 0 347 z "},"a":{"ha":521,"x_min":0,"x_max":434,"o":"m 0 87 l 0 174 l 87 174 l 87 87 l 0 87 m 0 260 l 0 347 l 87 347 l 87 260 l 0 260 m 87 0 l 87 87 l 260 87 l 260 174 l 87 174 l 87 260 l 260 260 l 260 347 l 347 347 l 347 87 l 434 87 l 434 0 l 87 0 m 87 347 l 87 434 l 260 434 l 260 347 l 87 347 z "},"b":{"ha":521,"x_min":0,"x_max":434,"o":"m 347 87 l 347 347 l 434 347 l 434 87 l 347 87 m 0 0 l 0 87 l 87 87 l 87 521 l 0 521 l 0 608 l 174 608 l 174 434 l 347 434 l 347 347 l 174 347 l 174 87 l 347 87 l 347 0 l 0 0 z "},"c":{"ha":434,"x_min":0,"x_max":347,"o":"m 87 0 l 87 87 l 260 87 l 260 0 l 87 0 m 260 87 l 260 174 l 347 174 l 347 87 l 260 87 m 0 87 l 0 347 l 87 347 l 87 87 l 0 87 m 260 260 l 260 347 l 347 347 l 347 260 l 260 260 m 87 347 l 87 434 l 260 434 l 260 347 l 87 347 z "},"d":{"ha":521,"x_min":0,"x_max":434,"o":"m 0 87 l 0 347 l 87 347 l 87 87 l 0 87 m 87 0 l 87 87 l 260 87 l 260 347 l 87 347 l 87 434 l 260 434 l 260 608 l 434 608 l 434 521 l 347 521 l 347 87 l 434 87 l 434 0 l 87 0 z "},"e":{"ha":434,"x_min":0,"x_max":347,"o":"m 87 0 l 87 87 l 260 87 l 260 0 l 87 0 m 0 87 l 0 347 l 87 347 l 87 260 l 260 260 l 260 174 l 87 174 l 87 87 l 0 87 m 260 260 l 260 347 l 347 347 l 347 260 l 260 260 m 87 347 l 87 434 l 260 434 l 260 347 l 87 347 z "},"f":{"ha":521,"x_min":87,"x_max":434,"o":"m 87 0 l 87 87 l 174 87 l 174 260 l 87 260 l 87 347 l 174 347 l 174 521 l 260 521 l 260 347 l 347 347 l 347 260 l 260 260 l 260 87 l 347 87 l 347 0 l 87 0 m 347 434 l 347 521 l 434 521 l 434 434 l 347 434 m 260 521 l 260 608 l 347 608 l 347 521 l 260 521 z "},"g":{"ha":521,"x_min":0,"x_max":434,"o":"m 87 -260 l 87 -174 l 347 -174 l 347 -260 l 87 -260 m 0 -174 l 0 -87 l 87 -87 l 87 -174 l 0 -174 m 347 -174 l 347 -87 l 434 -87 l 434 -174 l 347 -174 m 87 -87 l 87 0 l 174 0 l 174 -87 l 87 -87 m 87 87 l 87 347 l 174 347 l 174 87 l 87 87 m 260 -87 l 260 0 l 174 0 l 174 87 l 347 87 l 347 347 l 434 347 l 434 0 l 347 0 l 347 -87 l 260 -87 m 174 347 l 174 434 l 347 434 l 347 347 l 174 347 m 347 434 l 347 521 l 434 521 l 434 434 l 347 434 z "},"h":{"ha":608,"x_min":0,"x_max":521,"o":"m 347 0 l 347 347 l 434 347 l 434 87 l 521 87 l 521 0 l 347 0 m 0 0 l 0 87 l 87 87 l 87 521 l 0 521 l 0 608 l 174 608 l 174 434 l 347 434 l 347 347 l 174 347 l 174 87 l 260 87 l 260 0 l 0 0 z "},"i":{"ha":347,"x_min":0,"x_max":260,"o":"m 0 0 l 0 87 l 87 87 l 87 347 l 0 347 l 0 434 l 174 434 l 174 87 l 260 87 l 260 0 l 0 0 m 87 521 l 87 608 l 174 608 l 174 521 l 87 521 z "},"j":{"ha":434,"x_min":0,"x_max":347,"o":"m 87 -260 l 87 -174 l 260 -174 l 260 -260 l 87 -260 m 0 -174 l 0 -87 l 87 -87 l 87 -174 l 0 -174 m 260 -174 l 260 347 l 174 347 l 174 434 l 347 434 l 347 -174 l 260 -174 m 260 521 l 260 608 l 347 608 l 347 521 l 260 521 z "},"k":{"ha":608,"x_min":0,"x_max":521,"o":"m 0 0 l 0 87 l 87 87 l 87 521 l 0 521 l 0 608 l 174 608 l 174 260 l 260 260 l 260 347 l 347 347 l 347 434 l 521 434 l 521 347 l 434 347 l 434 260 l 347 260 l 347 174 l 434 174 l 434 87 l 521 87 l 521 0 l 347 0 l 347 87 l 260 87 l 260 174 l 174 174 l 174 0 l 0 0 z "},"l":{"ha":347,"x_min":0,"x_max":260,"o":"m 0 0 l 0 87 l 87 87 l 87 521 l 0 521 l 0 608 l 174 608 l 174 87 l 260 87 l 260 0 l 0 0 z "},"m":{"ha":868,"x_min":0,"x_max":781,"o":"m 434 0 l 434 87 l 521 87 l 521 0 l 434 0 m 694 0 l 694 87 l 781 87 l 781 0 l 694 0 m 0 0 l 0 87 l 87 87 l 87 347 l 174 347 l 174 87 l 260 87 l 260 0 l 0 0 m 347 87 l 347 347 l 434 347 l 434 87 l 347 87 m 608 87 l 608 347 l 694 347 l 694 87 l 608 87 m 0 347 l 0 434 l 87 434 l 87 347 l 0 347 m 174 347 l 174 434 l 347 434 l 347 347 l 174 347 m 434 347 l 434 434 l 608 434 l 608 347 l 434 347 z "},"n":{"ha":608,"x_min":0,"x_max":521,"o":"m 434 0 l 434 87 l 521 87 l 521 0 l 434 0 m 0 0 l 0 87 l 87 87 l 87 347 l 174 347 l 174 87 l 260 87 l 260 0 l 0 0 m 347 87 l 347 347 l 434 347 l 434 87 l 347 87 m 0 347 l 0 434 l 87 434 l 87 347 l 0 347 m 174 347 l 174 434 l 347 434 l 347 347 l 174 347 z "},"o":{"ha":434,"x_min":0,"x_max":347,"o":"m 87 0 l 87 87 l 260 87 l 260 0 l 87 0 m 0 87 l 0 347 l 87 347 l 87 87 l 0 87 m 260 87 l 260 347 l 347 347 l 347 87 l 260 87 m 87 347 l 87 434 l 260 434 l 260 347 l 87 347 z "},"p":{"ha":521,"x_min":0,"x_max":434,"o":"m 347 87 l 347 347 l 434 347 l 434 87 l 347 87 m 0 -260 l 0 -174 l 87 -174 l 87 347 l 0 347 l 0 434 l 347 434 l 347 347 l 174 347 l 174 87 l 347 87 l 347 0 l 174 0 l 174 -174 l 260 -174 l 260 -260 l 0 -260 z "},"q":{"ha":521,"x_min":0,"x_max":434,"o":"m 0 87 l 0 347 l 87 347 l 87 87 l 0 87 m 174 -260 l 174 -174 l 260 -174 l 260 0 l 87 0 l 87 87 l 260 87 l 260 347 l 87 347 l 87 434 l 434 434 l 434 347 l 347 347 l 347 -174 l 434 -174 l 434 -260 l 174 -260 z "},"r":{"ha":434,"x_min":0,"x_max":347,"o":"m 0 0 l 0 87 l 87 87 l 87 347 l 174 347 l 174 87 l 260 87 l 260 0 l 0 0 m 0 347 l 0 434 l 87 434 l 87 347 l 0 347 m 260 260 l 260 347 l 174 347 l 174 434 l 347 434 l 347 260 l 260 260 z "},"s":{"ha":521,"x_min":0,"x_max":434,"o":"m 0 87 l 0 174 l 87 174 l 87 87 l 0 87 m 87 0 l 87 87 l 260 87 l 260 174 l 434 174 l 434 87 l 347 87 l 347 0 l 87 0 m 174 174 l 174 260 l 260 260 l 260 174 l 174 174 m 347 260 l 347 347 l 434 347 l 434 260 l 347 260 m 0 260 l 0 347 l 87 347 l 87 434 l 347 434 l 347 347 l 174 347 l 174 260 l 0 260 z "},"t":{"ha":434,"x_min":0,"x_max":347,"o":"m 174 0 l 174 87 l 260 87 l 260 0 l 174 0 m 260 87 l 260 174 l 347 174 l 347 87 l 260 87 m 87 87 l 87 347 l 0 347 l 0 434 l 87 434 l 87 608 l 174 608 l 174 434 l 347 434 l 347 347 l 174 347 l 174 87 l 87 87 z "},"u":{"ha":608,"x_min":0,"x_max":521,"o":"m 87 87 l 87 347 l 0 347 l 0 434 l 174 434 l 174 87 l 87 87 m 174 0 l 174 87 l 347 87 l 347 347 l 260 347 l 260 434 l 434 434 l 434 87 l 521 87 l 521 0 l 174 0 z "},"v":{"ha":608,"x_min":0,"x_max":521,"o":"m 260 0 l 260 87 l 174 87 l 174 174 l 347 174 l 347 0 l 260 0 m 87 174 l 87 347 l 0 347 l 0 434 l 174 434 l 174 174 l 87 174 m 347 174 l 347 347 l 260 347 l 260 434 l 521 434 l 521 347 l 434 347 l 434 174 l 347 174 z "},"w":{"ha":868,"x_min":0,"x_max":781,"o":"m 260 0 l 260 87 l 347 87 l 347 0 l 260 0 m 434 0 l 434 87 l 521 87 l 521 0 l 434 0 m 174 87 l 174 174 l 260 174 l 260 87 l 174 87 m 521 87 l 521 174 l 608 174 l 608 87 l 521 87 m 87 174 l 87 347 l 0 347 l 0 434 l 174 434 l 174 174 l 87 174 m 347 87 l 347 347 l 260 347 l 260 434 l 434 434 l 434 87 l 347 87 m 608 174 l 608 347 l 521 347 l 521 434 l 781 434 l 781 347 l 694 347 l 694 174 l 608 174 z "},"x":{"ha":608,"x_min":0,"x_max":521,"o":"m 0 0 l 0 87 l 87 87 l 87 174 l 174 174 l 174 87 l 260 87 l 260 0 l 0 0 m 347 0 l 347 87 l 260 87 l 260 174 l 174 174 l 174 260 l 347 260 l 347 174 l 434 174 l 434 87 l 521 87 l 521 0 l 347 0 m 87 260 l 87 347 l 0 347 l 0 434 l 174 434 l 174 260 l 87 260 m 347 260 l 347 347 l 260 347 l 260 434 l 521 434 l 521 347 l 434 347 l 434 260 l 347 260 z "},"y":{"ha":608,"x_min":0,"x_max":521,"o":"m 0 -87 l 0 0 l 87 0 l 87 -87 l 0 -87 m 87 -174 l 87 -87 l 174 -87 l 174 0 l 260 0 l 260 -174 l 87 -174 m 260 0 l 260 87 l 174 87 l 174 174 l 347 174 l 347 0 l 260 0 m 87 174 l 87 347 l 0 347 l 0 434 l 174 434 l 174 174 l 87 174 m 347 174 l 347 347 l 260 347 l 260 434 l 521 434 l 521 347 l 434 347 l 434 174 l 347 174 z "},"z":{"ha":434,"x_min":0,"x_max":347,"o":"m 0 0 l 0 87 l 87 87 l 87 260 l 174 260 l 174 347 l 87 347 l 87 260 l 0 260 l 0 434 l 347 434 l 347 347 l 260 347 l 260 174 l 174 174 l 174 87 l 260 87 l 260 174 l 347 174 l 347 0 l 0 0 z "},"{":{"ha":694,"x_min":0,"x_max":608,"o":"m 521 0 l 521 87 l 608 87 l 608 0 l 521 0 m 260 -87 l 260 0 l 0 0 l 0 87 l 87 87 l 87 347 l 174 347 l 174 434 l 260 434 l 260 521 l 87 521 l 87 434 l 0 434 l 0 608 l 608 608 l 608 434 l 521 434 l 521 521 l 347 521 l 347 434 l 434 434 l 434 347 l 521 347 l 521 87 l 434 87 l 434 260 l 347 260 l 347 87 l 434 87 l 434 0 l 347 0 l 347 -87 l 260 -87 z "},"|":{"ha":347,"x_min":0,"x_max":260,"o":"m 174 -87 l 174 0 l 87 0 l 87 87 l 0 87 l 0 174 l 87 174 l 87 260 l 0 260 l 0 347 l 87 347 l 87 434 l 0 434 l 0 608 l 87 608 l 87 521 l 174 521 l 174 434 l 260 434 l 260 -87 l 174 -87 z "},"}":{"ha":521,"x_min":0,"x_max":434,"o":"m 87 174 l 87 347 l 0 347 l 0 434 l 174 434 l 174 521 l 260 521 l 260 434 l 434 434 l 434 347 l 347 347 l 347 174 l 260 174 l 260 260 l 174 260 l 174 174 l 87 174 z "},"~":{"ha":1302,"x_min":0,"x_max":1215,"o":"m 521 0 l 521 87 l 608 87 l 608 0 l 521 0 m 694 0 l 694 87 l 781 87 l 781 0 l 694 0 m 434 87 l 434 174 l 521 174 l 521 87 l 434 87 m 781 87 l 781 174 l 868 174 l 868 87 l 781 87 m 608 87 l 608 174 l 521 174 l 521 260 l 347 260 l 347 347 l 87 347 l 87 434 l 0 434 l 0 521 l 434 521 l 434 434 l 521 434 l 521 521 l 434 521 l 434 608 l 608 608 l 608 521 l 694 521 l 694 434 l 781 434 l 781 521 l 1215 521 l 1215 434 l 1128 434 l 1128 347 l 955 347 l 955 260 l 781 260 l 781 174 l 694 174 l 694 87 l 608 87 z "},"‘":{"ha":174,"x_min":0,"x_max":87,"o":"m 0 347 l 0 608 l 87 608 l 87 347 l 0 347 z "},"’":{"ha":174,"x_min":0,"x_max":87,"o":"m 0 347 l 0 608 l 87 608 l 87 347 l 0 347 z "},"“":{"ha":347,"x_min":0,"x_max":260,"o":"m 0 434 l 0 608 l 87 608 l 87 434 l 0 434 m 174 434 l 174 608 l 260 608 l 260 434 l 174 434 z "},"”":{"ha":347,"x_min":0,"x_max":260,"o":"m 0 434 l 0 608 l 87 608 l 87 434 l 0 434 m 174 434 l 174 608 l 260 608 l 260 434 l 174 434 z "}}}
